<svg xmlns="http://www.w3.org/2000/svg" viewBox="0 0 420 220" fill="none">
  <!-- outer rounded rectangle border -->
  <rect x="6" y="6" width="408" height="208" rx="36" ry="36"
    fill="white" stroke="black" stroke-width="16"/>
  <!-- a -->
  <path fill="black" d="
    M97 148 L97 135 C90 143 81 150 68 150 C52 150 40 139 40 122
    C40 104 54 95 77 95 L97 95 L97 90 C97 78 90 72 77 72
    C66 72 58 77 55 86 L40 82 C45 66 59 57 78 57
    C101 57 114 70 114 91 L114 148 Z
    M97 108 L77 108 C65 108 58 113 58 122 C58 131 65 136 75 136
    C88 136 97 127 97 115 Z
  "/>
  <!-- g -->
  <path fill="black" d="
    M200 57 C222 57 240 75 240 100 C240 125 222 143 200 143
    C192 143 185 141 179 137 L179 160 C179 169 185 174 195 174
    C206 174 213 169 215 160 L232 164 C228 179 215 188 195 188
    C173 188 161 175 161 158 L161 60 L179 60 L179 66
    C185 61 192 57 200 57 Z
    M200 72 C186 72 177 84 177 100 C177 116 186 128 200 128
    C214 128 223 116 223 100 C223 84 214 72 200 72 Z
  "/>
  <!-- v -->
  <path fill="black" d="
    M264 60 L302 148 L340 60 L359 60 L312 165 L292 165 L245 60 Z
  "/>
</svg>
